<svg width="24" height="25" viewBox="0 0 24 25" fill="none" xmlns="http://www.w3.org/2000/svg">
<rect y="0.5" width="24" height="24" rx="12" fill="#E84142"/>
<path fill-rule="evenodd" clip-rule="evenodd" d="M18.9737 16.7135C18.9694 16.8071 18.9428 16.8982 18.8962 16.9794C18.8496 17.0606 18.7843 17.1295 18.7056 17.1804C18.4232 17.287 18.1185 17.3212 17.8195 17.2798H14.4823C14.1836 17.3194 13.8797 17.2868 13.5961 17.1847C13.518 17.1333 13.453 17.0643 13.4065 16.9832C13.3599 16.9021 13.3331 16.8112 13.3281 16.7178C13.3281 16.5449 13.4405 16.3331 13.6869 15.9138L15.3555 13.0392C15.6019 12.6069 15.7273 12.408 15.8786 12.3302C15.9607 12.2878 16.0519 12.2656 16.1444 12.2656C16.2369 12.2656 16.3281 12.2878 16.4103 12.3302C16.5659 12.408 16.6826 12.6069 16.916 13.0046V13.0392L18.5889 15.8965C18.5944 15.9117 18.6016 15.9262 18.6105 15.9397C18.8656 16.3418 18.9823 16.5449 18.9737 16.7135Z" fill="white"/>
<path fill-rule="evenodd" clip-rule="evenodd" d="M14.4605 9.60954C14.3494 9.94572 14.1938 10.2655 13.998 10.5605L10.972 15.8992C10.8159 16.2125 10.6181 16.5033 10.3841 16.7637C10.184 16.9645 9.93757 17.1129 9.66656 17.196C9.31517 17.2654 8.95624 17.2886 8.59884 17.2652H6.27319C5.98154 17.3021 5.68528 17.2695 5.40864 17.1701C5.33175 17.1184 5.26766 17.0499 5.22122 16.9697C5.17478 16.8896 5.14721 16.7999 5.14063 16.7075C5.14062 16.5346 5.25302 16.3185 5.49509 15.8948L11.24 5.77524C11.4864 5.34297 11.6118 5.12683 11.7674 5.04902C11.8504 5.00653 11.9422 4.98438 12.0354 4.98438C12.1286 4.98438 12.2205 5.00653 12.3034 5.04902C12.4591 5.12683 12.5844 5.34297 12.8265 5.77524L13.998 7.85017C14.1914 8.14283 14.3454 8.45968 14.4562 8.79254C14.5217 9.06076 14.5232 9.34064 14.4605 9.60954Z" fill="white"/>
</svg>
