<svg width="40" height="40" viewBox="0 0 40 40" fill="none" xmlns="http://www.w3.org/2000/svg">
<rect width="40" height="40" rx="20" fill="#F0B90B"/>
<path d="M12.0913 19.9982L12.104 24.6389L16.0472 26.9592V29.6761L9.79633 26.01V18.6411L12.0913 19.9982ZM12.0913 15.3575V18.0618L9.79492 16.7033V13.9991L12.0913 12.6406L14.399 13.9991L12.0913 15.3575ZM17.6939 13.9991L19.9903 12.6406L22.298 13.9991L19.9903 15.3575L17.6939 13.9991Z" fill="white"/>
<path d="M13.7578 23.677V20.9601L16.0542 22.3185V25.0228L13.7578 23.677ZM17.701 27.9323L19.9974 29.2908L22.3051 27.9323V30.6366L19.9974 31.995L17.701 30.6366V27.9323ZM25.5985 13.9991L27.895 12.6406L30.2026 13.9991V16.7033L27.895 18.0618V15.3575L25.5985 13.9991ZM27.895 24.6388L27.9076 19.9982L30.204 18.6397V26.0085L23.9532 29.6747V26.9578L27.895 24.6388Z" fill="white"/>
<path d="M26.2417 23.6856L23.9453 25.0314V22.3272L26.2417 20.9688V23.6856Z" fill="white"/>
<path d="M26.2482 16.318L26.2609 19.0349L22.3065 21.3553V26.0072L20.0101 27.353L17.7136 26.0072V21.3553L13.7592 19.0349V16.318L16.0655 14.9596L19.996 17.2912L23.9504 14.9596L26.2581 16.318H26.2482ZM13.7578 11.6788L19.9974 8L26.2482 11.6788L23.9518 13.0372L19.9974 10.7056L16.0542 13.0372L13.7578 11.6788Z" fill="white"/>
</svg>
