<svg width="28" height="28" viewBox="0 0 28 28" fill="none" xmlns="http://www.w3.org/2000/svg">
<rect width="28" height="28" rx="7" fill="white" fill-opacity="0.1"/>
<path fill-rule="evenodd" clip-rule="evenodd" d="M21.5863 21V7H22.0945V21H21.5863ZM21.5863 21L21.0527 7H20.5444L21.0764 21H21.5863ZM21.0781 21L20.0108 7H19.5026L20.5699 21H21.0781ZM20.5563 21L18.9504 7H18.4421L20.0413 21H20.5563ZM20.0312 21L17.9001 7H17.3918L19.5212 21H20.0312ZM19.5111 21L16.843 7H16.3263L18.9944 21H19.5111ZM18.9893 21L15.7706 7H15.2489L18.4676 21H18.9893ZM18.4625 21L14.6814 7H14.1562L17.9221 21H18.4625ZM17.9322 21L13.6107 7H13.0805L17.402 21H17.9322ZM17.3952 21L12.513 7H11.976L16.8413 21H17.3952ZM5.90625 7V21H6.41446V7H5.90625ZM6.41446 7L6.98366 21H7.49187L6.92267 7H6.41446ZM6.92267 7L8.06615 21H8.57436L7.43089 7H6.92267ZM7.43936 7L9.12323 21H9.63144L7.9391 7H7.43936ZM7.96112 7L10.243 21H10.7512L8.46764 7H7.96112ZM8.46933 7L11.2984 21H11.8168L8.98771 7H8.46933ZM8.97755 7L12.4266 21H12.9501L9.501 7H8.97755ZM9.49931 7L13.6158 21H14.1444L10.0278 7H9.49931ZM10.0228 7L14.7424 21H15.2777L10.5649 7H10.0228ZM10.5615 7L12.7027 12.2306L16.2602 20.9224L16.2907 21H16.8379L16.7955 20.8976L13.2381 12.2043L11.1103 7H10.5615Z" fill="url(#paint0_linear_6640_7648)"/>
<defs>
<linearGradient id="paint0_linear_6640_7648" x1="14.1715" y1="22.4977" x2="13.9536" y2="2.45009" gradientUnits="userSpaceOnUse">
<stop stop-color="#5ED3F0"/>
<stop offset="1" stop-color="#6BBFFC"/>
</linearGradient>
</defs>
</svg>
