<svg width="20" height="21" viewBox="0 0 20 21" fill="none" xmlns="http://www.w3.org/2000/svg">
<path d="M18.9252 0.975076C18.8181 1.02863 17.4507 2.37821 14.3766 5.46296L9.98515 9.8723L5.58653 5.47724C2.14831 2.0426 1.1522 1.06433 1.02723 1.01078C0.809446 0.91081 0.648781 0.917951 0.427422 1.02863C0.102523 1.1893 -0.0438597 1.55347 0.0811013 1.89265C0.134656 2.03903 0.691625 2.61028 4.55828 6.47693L8.97119 10.897L4.519 15.3492C0.420281 19.455 0.0668201 19.8192 0.0275466 19.9656C-0.0902738 20.4119 0.18107 20.8296 0.62736 20.8832C0.991532 20.926 0.705906 21.1866 5.53297 16.3667L9.98515 11.9217L14.3624 16.3167C16.7688 18.7338 18.7967 20.7475 18.8645 20.7903C18.9359 20.8332 19.0716 20.8724 19.193 20.8832C19.3608 20.8974 19.4251 20.8867 19.5572 20.8153C19.8714 20.6475 20.0213 20.2762 19.9142 19.9442C19.8785 19.8299 19.0359 18.9695 15.4477 15.3706C13.0128 12.9321 11.0241 10.9184 11.0241 10.897C11.0241 10.8756 13.0164 8.8619 15.4477 6.42338C19.5072 2.35679 19.8749 1.97476 19.9142 1.82838C20.0784 1.21786 19.4786 0.700162 18.9252 0.975076Z" fill="black"/>
</svg>
