<svg width="21" height="20" viewBox="0 0 21 20" fill="none" xmlns="http://www.w3.org/2000/svg">
<g clip-path="url(#clip0_1944_5873)">
<path d="M4.7959 0.0576196C3.6748 0.225588 2.78809 0.670901 1.97949 1.47949C1.14746 2.31153 0.694336 3.24121 0.541992 4.40918C0.483398 4.86621 0.483398 15.1318 0.541992 15.5889C0.694336 16.7568 1.14746 17.6865 1.97949 18.5186C2.81152 19.3506 3.74121 19.8037 4.90918 19.9561C5.36621 20.0146 15.6318 20.0146 16.0889 19.9561C17.2568 19.8037 18.1865 19.3506 19.0186 18.5186C19.8506 17.6865 20.3037 16.7568 20.4561 15.5889C20.5146 15.1318 20.5146 4.86621 20.4561 4.40918C20.3037 3.24121 19.8506 2.31153 19.0186 1.47949C18.1865 0.647463 17.2568 0.194338 16.0889 0.0419946C15.5889 -0.0244117 5.2373 -0.00878668 4.7959 0.0576196ZM16.5029 1.82324C16.9443 1.97559 17.042 2.02637 17.4053 2.27637C17.9834 2.67481 18.4404 3.2959 18.6709 3.99512L18.7998 4.39356V9.99902C18.7998 15.3623 18.7959 15.6162 18.7256 15.8389C18.4639 16.6865 18.0107 17.3154 17.3428 17.7686C17.0537 17.9639 16.8037 18.0771 16.3975 18.2061L16.1045 18.2998H10.499H4.89355L4.49512 18.1709C3.40137 17.8115 2.63574 17.0107 2.27246 15.8389C2.20215 15.6162 2.19824 15.3623 2.19824 9.99902C2.19824 4.63574 2.20215 4.38184 2.27246 4.15918C2.5498 3.26856 3.03418 2.62012 3.75684 2.16699C4.06152 1.97559 4.58496 1.77246 4.90918 1.71778C5.00684 1.70215 7.57715 1.69043 10.6162 1.69434L16.1436 1.69824L16.5029 1.82324Z" fill="white"/>
<path d="M15.6562 3.37481C15.3789 3.43731 15.2188 3.52325 15.0312 3.71465C14.7773 3.97637 14.6992 4.1834 14.6992 4.58965C14.6992 4.89434 14.7148 4.96856 14.8047 5.13653C15.0195 5.54278 15.3828 5.78106 15.8359 5.81231C16.168 5.83184 16.3438 5.78497 16.6211 5.59747C17.3984 5.07403 17.3086 3.88262 16.4648 3.48028C16.1758 3.34356 15.9453 3.31231 15.6562 3.37481Z" fill="white"/>
<path d="M9.85938 5.04297C7.97266 5.30469 6.36328 6.61719 5.77734 8.38281C5.57812 8.98438 5.52344 9.33203 5.52344 10C5.52344 10.668 5.57812 11.0156 5.77734 11.6211C6.25 13.0352 7.46875 14.25 8.89062 14.7266C9.48438 14.9219 9.83594 14.9766 10.5 14.9766C11.1641 14.9766 11.5156 14.9219 12.1094 14.7266C13.5312 14.25 14.75 13.0352 15.2227 11.6211C15.4219 11.0156 15.4766 10.668 15.4766 10C15.4766 9.125 15.3086 8.41016 14.9297 7.69531C14.207 6.33984 12.9648 5.40625 11.457 5.09766C11.082 5.01953 10.2305 4.98828 9.85938 5.04297ZM11.5039 6.83203C11.9219 6.96875 12.0352 7.02344 12.3555 7.23828C13.0117 7.67969 13.4531 8.29297 13.707 9.10156C13.7852 9.35547 13.8008 9.47656 13.8008 10C13.8008 10.6445 13.7539 10.8828 13.5234 11.3945C13.2344 12.0508 12.5508 12.7344 11.8906 13.0273C11.3828 13.2539 11.1445 13.3008 10.5 13.3008C9.85547 13.3008 9.61719 13.2539 9.10938 13.0273C8.44922 12.7344 7.76562 12.0508 7.47656 11.3945C7.24609 10.8828 7.19922 10.6445 7.19922 10C7.19922 9.47656 7.21484 9.35547 7.29297 9.10156C7.42578 8.67969 7.54297 8.43359 7.76562 8.10938C8.20703 7.46875 8.82422 7.02734 9.58203 6.80469C9.96875 6.69141 10.0273 6.68359 10.6172 6.69922C11.082 6.71094 11.1875 6.72656 11.5039 6.83203Z" fill="white"/>
</g>
<defs>
<clipPath id="clip0_1944_5873">
<rect width="20" height="20" fill="white" transform="translate(0.5)"/>
</clipPath>
</defs>
</svg>
