<svg width="20" height="20" viewBox="0 0 20 20" fill="none" xmlns="http://www.w3.org/2000/svg"><mask id="mask0_2960_6024" maskUnits="userSpaceOnUse" x="0" y="0" width="20" height="20" style="mask-type: luminance;"><path d="M12.5004 14.9995V20H7.49981V14.9995H12.5004ZM5.00062 14.9995V20H0V14.9995H5.00062ZM20.0002 14.9995V20H14.9996V14.9995H20.0002ZM5.00062 7.49972V12.5003H0V7.49972H5.00062ZM12.5004 7.49972V12.5003H7.49981V7.49972H12.5004ZM20.0002 7.49972V12.5003H14.9996V7.49972H20.0002ZM5.00062 0V5.00047H0V0H5.00062ZM20.0002 0V5.00047H14.9996V0H20.0002ZM12.5004 0V5.00047H7.49981V0H12.5004Z" fill="white"></path></mask><g mask="url(#mask0_2960_6024)"><path d="M0 0H20.0002V20H0V0Z" fill="black"></path></g></svg>