<svg width="122" height="30" viewBox="0 0 122 30" fill="none" xmlns="http://www.w3.org/2000/svg">
<g clip-path="url(#clip0_529_82232)">
<path fill-rule="evenodd" clip-rule="evenodd" d="M30.07 28.7079V1.07422H31.0341V28.7079H30.07ZM30.07 28.7079L29.0577 1.07422H28.0936L29.1027 28.7079H30.07ZM29.1059 28.7079L27.0813 1.07422H26.1172L28.1418 28.7079H29.1059ZM28.1161 28.7079L25.0695 1.07422H24.1054L27.1391 28.7079H28.1161ZM27.1198 28.7079L23.077 1.07422H22.1129L26.1525 28.7079H27.1198ZM26.1332 28.7079L21.0717 1.07422H20.0915L25.1531 28.7079H26.1332ZM25.1434 28.7079L19.0374 1.07422H18.0476L24.1536 28.7079H25.1434ZM24.144 28.7079L16.971 1.07422H15.9748L23.1188 28.7079H24.144ZM23.1381 28.7079L14.94 1.07422H13.9341L22.1322 28.7079H23.1381ZM22.1194 28.7079L12.8575 1.07422H11.8388L21.0685 28.7079H22.1194ZM0.324219 1.07422V28.7079H1.28832V1.07422H0.324219ZM1.28832 1.07422L2.36812 28.7079H3.33222L2.25242 1.07422H1.28832ZM2.25242 1.07422L4.42165 28.7079H5.38575L3.21652 1.07422H2.25242ZM3.23259 1.07422L6.42699 28.7079H7.39109L4.18063 1.07422H3.23259ZM4.22241 1.07422L8.55122 28.7079H9.51533L5.18329 1.07422H4.22241ZM5.18651 1.07422L10.5533 28.7079H11.5367L6.16989 1.07422H5.18651ZM6.15061 1.07422L12.6936 28.7079H13.6867L7.14363 1.07422H6.15061ZM7.14042 1.07422L14.9496 28.7079H15.9523L8.14309 1.07422H7.14042ZM8.13345 1.07422L17.0867 28.7079H18.1023L9.16182 1.07422H8.13345ZM9.15539 1.07422L13.2175 11.3986L19.9662 28.5548L20.024 28.7079H21.0621L20.9817 28.5057L14.233 11.3466L10.1966 1.07422H9.15539Z" fill="url(#paint0_linear_529_82232)"/>
<path fill-rule="evenodd" clip-rule="evenodd" d="M94.2725 20.9393C93.167 23.3223 91.3111 25.3631 88.9329 26.8109C86.5547 28.2586 83.7578 29.0503 80.8859 29.0887C78.0139 29.1271 75.192 28.4104 72.767 27.0268C70.342 25.6431 68.4196 23.6528 67.2358 21.3004C65.4137 17.7213 65.4105 12.094 67.2358 8.51197C68.4157 6.15535 70.3364 4.16029 72.7615 2.77238C75.1867 1.38447 78.0104 0.664295 80.885 0.700521C83.7597 0.736747 86.5599 1.52779 88.9408 2.97626C91.3217 4.42473 93.1794 6.46742 94.2853 8.85284L94.3657 9.02039H91.197L91.1584 8.95684C90.1895 7.31319 88.759 5.92607 87.0089 4.93331C85.2589 3.94055 83.2503 3.37674 81.1828 3.29788C79.1153 3.21902 77.0608 3.62786 75.2235 4.48379C73.3863 5.33971 71.8301 6.61291 70.7098 8.17688C68.0907 11.8022 68.0907 17.9986 70.7098 21.6124C71.8299 23.1765 73.3858 24.4499 75.2229 25.3061C77.06 26.1622 79.1144 26.5714 81.1819 26.4928C83.2494 26.4142 85.2581 25.8507 87.0082 24.8582C88.7584 23.8657 90.1892 22.4788 91.1584 20.8353L91.197 20.7718H94.3657L94.2725 20.9393ZM59.1566 25.6047V1.07925H62.049V28.7129H58.109L38.5056 4.39263V28.7129H35.6133V1.07925H39.3765L59.1566 25.6047ZM108.213 12.874L118.208 1.07635H121.826L110.023 15.0116L121.63 28.7129H118.015L108.213 17.158L98.4149 28.7129H94.8798L106.394 15.0088L94.5938 1.07925H98.2124L108.213 12.874Z" fill="white"/>
</g>
<defs>
<linearGradient id="paint0_linear_529_82232" x1="15.6663" y1="28.8379" x2="15.6663" y2="-3.04802" gradientUnits="userSpaceOnUse">
<stop stop-color="#22B4FB"/>
<stop offset="0.68" stop-color="#006EF3"/>
</linearGradient>
<clipPath id="clip0_529_82232">
<rect width="121.535" height="28.3877" fill="white" transform="translate(0.292969 0.695312)"/>
</clipPath>
</defs>
</svg>
