<svg width="116" height="27" viewBox="0 0 116 27" fill="none" xmlns="http://www.w3.org/2000/svg">
<g clip-path="url(#clip0_6630_9838)">
<path fill-rule="evenodd" clip-rule="evenodd" d="M28.374 26.1532V0.84375H29.2927V26.1532H28.374ZM28.374 26.1532L27.4093 0.84375H26.4905L27.4522 26.1532H28.374ZM27.4552 26.1532L25.5259 0.84375H24.6071L26.5365 26.1532H27.4552ZM26.512 26.1532L23.6087 0.84375H22.69L25.581 26.1532H26.512ZM25.5626 26.1532L21.7099 0.84375H20.7912L24.6408 26.1532H25.5626ZM24.6224 26.1532L19.7989 0.84375H18.8649L23.6883 26.1532H24.6224ZM23.6792 26.1532L17.8604 0.84375H16.9171L22.7359 26.1532H23.6792ZM22.7267 26.1532L15.8912 0.84375H14.9418L21.7498 26.1532H22.7267ZM21.7681 26.1532L13.9557 0.84375H12.9971L20.8096 26.1532H21.7681ZM20.7973 26.1532L11.9712 0.84375H11.0003L19.7959 26.1532H20.7973ZM0.0273438 0.84375V26.1532H0.946098V0.84375H0.0273438ZM0.946098 0.84375L1.9751 26.1532H2.89386L1.86485 0.84375H0.946098ZM1.86485 0.84375L3.93205 26.1532H4.85081L2.78361 0.84375H1.86485ZM2.79892 0.84375L5.84306 26.1532H6.76182L3.70236 0.84375H2.79892ZM3.74218 0.84375L7.86739 26.1532H8.78614L4.65787 0.84375H3.74218ZM4.66093 0.84375L9.77533 26.1532H10.7125L5.59806 0.84375H4.66093ZM5.57969 0.84375L11.815 26.1532H12.7613L6.526 0.84375H5.57969ZM6.52294 0.84375L13.9649 26.1532H14.9204L7.47844 0.84375H6.52294ZM7.46926 0.84375L16.0014 26.1532H16.9692L8.44926 0.84375H7.46926ZM8.44314 0.84375L12.3142 10.2997L18.7454 26.013L18.8006 26.1532H19.7898L19.7132 25.968L13.2819 10.2521L9.43539 0.84375H8.44314Z" fill="url(#paint0_linear_6630_9838)"/>
<path fill-rule="evenodd" clip-rule="evenodd" d="M89.5602 19.0377C88.5068 21.2203 86.7382 23.0894 84.4719 24.4154C82.2055 25.7414 79.5402 26.4665 76.8033 26.5017C74.0664 26.5368 71.3773 25.8804 69.0664 24.6132C66.7554 23.3459 64.9234 21.523 63.7953 19.3685C62.0589 16.0904 62.0558 10.9364 63.7953 7.65563C64.9197 5.49722 66.75 3.66996 69.0611 2.39879C71.3722 1.12761 74.0631 0.468014 76.8025 0.501193C79.542 0.534372 82.2104 1.25888 84.4793 2.58552C86.7483 3.91217 88.5186 5.78304 89.5725 7.96783L89.6491 8.12129H86.6294L86.5927 8.06308C85.6693 6.55768 84.3061 5.28722 82.6384 4.37797C80.9707 3.46871 79.0566 2.95231 77.0863 2.88009C75.116 2.80786 73.1582 3.18232 71.4073 3.96625C69.6565 4.75019 68.1735 5.9163 67.1059 7.34872C64.6099 10.6692 64.6099 16.3443 67.1059 19.6542C68.1733 21.0867 69.656 22.253 71.4067 23.0372C73.1574 23.8213 75.1152 24.1961 77.0854 24.1241C79.0557 24.0521 80.9698 23.536 82.6377 22.627C84.3056 21.718 85.669 20.4477 86.5927 18.9425L86.6294 18.8843H89.6491L89.5602 19.0377ZM56.0961 23.3107V0.848063H58.8524V26.1575H55.0978L36.4164 3.88276V26.1575H33.6602V0.848063H37.2464L56.0961 23.3107ZM102.845 11.6507L112.37 0.845415H115.818L104.57 13.6086L115.631 26.1575H112.186L102.845 15.5744L93.5078 26.1575H90.1391L101.112 13.606L89.8665 0.848063H93.3149L102.845 11.6507Z" fill="black"/>
</g>
<defs>
<linearGradient id="paint0_linear_6630_9838" x1="14.9693" y1="28.8608" x2="14.5754" y2="-7.38166" gradientUnits="userSpaceOnUse">
<stop stop-color="#5ED3F0"/>
<stop offset="1" stop-color="#6BBFFC"/>
</linearGradient>
<clipPath id="clip0_6630_9838">
<rect width="115.818" height="26" fill="white" transform="translate(0 0.5)"/>
</clipPath>
</defs>
</svg>
