<svg width="118" height="26" viewBox="0 0 118 26" fill="none" xmlns="http://www.w3.org/2000/svg">
<g clip-path="url(#clip0_6064_8289)">
<path fill-rule="evenodd" clip-rule="evenodd" d="M28.9099 25.6571V0.347656H29.846V25.6571H28.9099ZM28.9099 25.6571L27.9271 0.347656H26.991L27.9708 25.6571H28.9099ZM27.9739 25.6571L26.0082 0.347656H25.0721L27.0378 25.6571H27.9739ZM27.0129 25.6571L24.0549 0.347656H23.1188L26.0643 25.6571H27.0129ZM26.0456 25.6571L22.1204 0.347656H21.1843L25.1064 25.6571H26.0456ZM25.0877 25.6571L20.1734 0.347656H19.2217L24.136 25.6571H25.0877ZM24.1267 25.6571L18.1983 0.347656H17.2372L23.1656 25.6571H24.1267ZM23.1563 25.6571L16.192 0.347656H15.2247L22.1609 25.6571H23.1563ZM22.1796 25.6571L14.22 0.347656H13.2434L21.203 25.6571H22.1796ZM21.1905 25.6571L12.1981 0.347656H11.209L20.1702 25.6571H21.1905ZM0.0292969 0.347656V25.6571H0.965359V0.347656H0.0292969ZM0.965359 0.347656L2.01375 25.6571H2.94981L1.90142 0.347656H0.965359ZM1.90142 0.347656L4.00756 25.6571H4.94362L2.83748 0.347656H1.90142ZM2.85309 0.347656L5.95457 25.6571H6.89064L3.77355 0.347656H2.85309ZM3.81411 0.347656L8.01703 25.6571H8.95309L4.74705 0.347656H3.81411ZM4.75017 0.347656L9.96092 25.6571H10.9157L5.70496 0.347656H4.75017ZM5.68623 0.347656L12.039 25.6571H13.0031L6.65038 0.347656H5.68623ZM6.64726 0.347656L14.2294 25.6571H15.2029L7.62076 0.347656H6.64726ZM7.6114 0.347656L16.3043 25.6571H17.2903L8.60987 0.347656H7.6114ZM8.60363 0.347656L12.5476 9.80364L19.1 25.5169L19.1562 25.6571H20.164L20.086 25.4719L13.5336 9.75602L9.61458 0.347656H8.60363Z" fill="#5ED3F0"/>
<path fill-rule="evenodd" clip-rule="evenodd" d="M91.2481 18.5377C90.1748 20.7203 88.3729 22.5894 86.0638 23.9154C83.7548 25.2414 81.0392 25.9665 78.2508 26.0017C75.4624 26.0368 72.7226 25.3804 70.3681 24.1132C68.0136 22.8459 66.1471 21.023 64.9978 18.8685C63.2286 15.5904 63.2255 10.4364 64.9978 7.15563C66.1433 4.99722 68.0081 3.16996 70.3628 1.89879C72.7174 0.627615 75.459 -0.0319861 78.25 0.00119289C81.0411 0.0343719 83.7598 0.758877 86.0714 2.08552C88.3831 3.41217 90.1868 5.28304 91.2606 7.46783L91.3386 7.62129H88.262L88.2246 7.56308C87.2839 6.05767 85.8949 4.78722 84.1958 3.87797C82.4967 2.96871 80.5465 2.45231 78.5391 2.38009C76.5318 2.30786 74.537 2.68232 72.7532 3.46625C70.9693 4.25019 69.4585 5.4163 68.3707 6.84872C65.8277 10.1692 65.8277 15.8443 68.3707 19.1542C69.4582 20.5867 70.9688 21.753 72.7525 22.5372C74.5362 23.3213 76.5309 23.6961 78.5382 23.6241C80.5456 23.5521 82.4958 23.036 84.1951 22.127C85.8944 21.218 87.2836 19.9477 88.2246 18.4425L88.262 18.3843H91.3386L91.2481 18.5377ZM57.1536 22.8107V0.348063H59.9617V25.6575H56.1364L37.1031 3.38276V25.6575H34.2949V0.348063H37.9487L57.1536 22.8107ZM104.784 11.1507L114.487 0.345415H118.001L106.54 13.1086L117.81 25.6575H114.3L104.784 15.0744L95.27 25.6575H91.8378L103.017 13.106L91.5601 0.348063H95.0734L104.784 11.1507Z" fill="white"/>
</g>
<defs>
<clipPath id="clip0_6064_8289">
<rect width="118" height="26" fill="white"/>
</clipPath>
</defs>
</svg>
