<svg width="20" height="19" viewBox="0 0 20 19" fill="none" xmlns="http://www.w3.org/2000/svg">
<g clip-path="url(#clip0_634_1772)">
<path d="M19.6233 0.749763C19.2821 0.46093 18.7454 0.419992 18.195 0.640597C17.6128 0.868025 1.70196 7.69086 1.05379 7.97969C0.935525 8.02063 -0.0833511 8.40271 0.0121685 9.25784C0.107688 10.0288 0.935525 10.3495 1.03559 10.395L5.08153 11.78C5.34535 12.6647 6.33466 15.9647 6.55299 16.6652C6.68945 17.1041 6.91233 17.6795 7.30123 17.8023C7.45379 17.857 7.61799 17.8708 7.77755 17.8425C7.93711 17.8142 8.08651 17.7447 8.21094 17.6408L10.6763 15.3438L14.6699 18.4664L14.7631 18.5232C15.0077 18.6371 15.2735 18.6983 15.5432 18.7029C15.7318 18.7031 15.9187 18.6668 16.0936 18.596C16.4826 18.4233 16.7909 18.1084 16.9555 17.7159L19.9371 2.2053C20.1191 1.37746 19.8666 0.954448 19.6233 0.749763ZM8.64305 12.3258L7.27849 15.9647L5.91392 11.4161L16.3756 3.68358L8.64305 12.3258Z" fill="white"/>
</g>
<defs>
<clipPath id="clip0_634_1772">
<rect width="20" height="18.1942" fill="white" transform="translate(0 0.5)"/>
</clipPath>
</defs>
</svg>
