<svg width="38" height="38" viewBox="0 0 38 38" fill="none" xmlns="http://www.w3.org/2000/svg">
<g clip-path="url(#clip0_4816_21492)">
<path d="M19 38C29.4934 38 38 29.4934 38 19C38 8.50659 29.4934 0 19 0C8.50659 0 0 8.50659 0 19C0 29.4934 8.50659 38 19 38Z" fill="#26A17B"/>
<path fill-rule="evenodd" clip-rule="evenodd" d="M20.9261 20.8572V20.8549C20.7955 20.8644 20.1222 20.9047 18.62 20.9047C17.4206 20.9047 16.5763 20.8691 16.2794 20.8549V20.8584C11.6624 20.6554 8.21631 19.8514 8.21631 18.8896C8.21631 17.9289 11.6624 17.1249 16.2794 16.9183V20.0581C16.5811 20.0794 17.4456 20.1305 18.6402 20.1305C20.0735 20.1305 20.7919 20.0711 20.9261 20.0592V16.9207C25.5336 17.1261 28.9714 17.9301 28.9714 18.8896C28.9714 19.8514 25.5336 20.653 20.9261 20.8572ZM20.9261 16.5941V13.7845H27.3552V9.5H9.85031V13.7845H16.2794V16.5929C11.0544 16.8328 7.125 17.8683 7.125 19.1081C7.125 20.3478 11.0544 21.3821 16.2794 21.6232V30.6268H20.9261V21.6208C26.1428 21.3809 30.0627 20.3466 30.0627 19.1081C30.0627 17.8695 26.1428 16.8352 20.9261 16.5941Z" fill="white"/>
</g>
<defs>
<clipPath id="clip0_4816_21492">
<rect width="38" height="38" fill="white"/>
</clipPath>
</defs>
</svg>
